<?xml version="1.0" encoding="iso-8859-1"?>
<!-- Generator: Adobe Illustrator 19.0.0, SVG Export Plug-In . SVG Version: 6.00 Build 0)  -->
<svg version="1.1" id="Layer_1" xmlns="http://www.w3.org/2000/svg" xmlns:xlink="http://www.w3.org/1999/xlink" x="0px" y="0px"
	 viewBox="0 0 512 512" style="enable-background:new 0 0 512 512;" xml:space="preserve">
<path style="fill:#FFEEC0;" d="M337.039,402.192h-162.08V149.784c0-22.08,17.899-39.978,39.978-39.978h82.123
	c22.08,0,39.978,17.899,39.978,39.978V402.192z"/>
<g>
	<path style="fill:#FFC61B;" d="M349.92,415.073H162.079V149.784c0-29.146,23.712-52.858,52.859-52.858h82.123
		c29.146,0,52.859,23.712,52.859,52.858V415.073z M187.84,389.312h136.318V149.784c0-14.941-12.157-27.097-27.098-27.097h-82.123
		c-14.941,0-27.098,12.157-27.098,27.097L187.84,389.312L187.84,389.312z"/>
	<path style="fill:#FFC61B;" d="M511.999,415.073h-187.84V198.681h134.982c29.146,0,52.859,23.712,52.859,52.858h-25.761
		c0-14.941-12.157-27.097-27.098-27.097H349.92v164.87h136.318v-69.274h25.761V415.073z"/>
	<path style="fill:#FFC61B;" d="M187.84,415.073H0V225.779c0-29.146,23.712-52.858,52.859-52.858h134.982v242.153h-0.001V415.073z
		 M25.761,389.312h136.318V198.681H52.859c-14.941,0-27.098,12.157-27.098,27.097C25.761,225.779,25.761,389.312,25.761,389.312z"/>
	<path style="fill:#FFC61B;" d="M287.456,267.525v20.043h-60.13v-20.043h19.765v-35.493c-0.835,1.113-2.136,2.252-3.896,3.409
		c-1.765,1.162-3.737,2.227-5.916,3.201c-2.181,0.974-4.408,1.765-6.681,2.366c-2.275,0.604-4.293,0.904-6.055,0.904v-20.6
		c1.483,0,3.409-0.509,5.776-1.53c2.366-1.02,4.709-2.249,7.03-3.689c2.318-1.437,4.406-2.899,6.264-4.385
		c1.855-1.484,3.014-2.691,3.479-3.619h22.688v59.433h17.677V267.525z"/>
	<path style="fill:#FFC61B;" d="M59.262,355.241c0-4.36,0.323-8.258,0.974-11.692c0.648-3.433,1.762-6.564,3.341-9.395
		c1.577-2.829,3.71-5.45,6.403-7.863c2.691-2.413,6.077-4.777,10.161-7.098c4.36-2.411,8.003-4.405,10.927-5.984
		c2.923-1.577,5.241-2.969,6.959-4.176c1.717-1.206,2.944-2.297,3.689-3.272c0.742-0.974,1.113-2.11,1.113-3.409
		c0-2.597-0.929-4.685-2.783-6.264c-1.857-1.577-4.502-2.366-7.934-2.366c-3.896,0-7.285,0.952-10.16,2.853
		c-2.878,1.904-5.661,4.385-8.352,7.447l-14.197-16.424c1.484-1.671,3.48-3.292,5.986-4.871c2.505-1.577,5.335-2.992,8.491-4.245
		c3.153-1.253,6.612-2.249,10.369-2.992c3.759-0.742,7.677-1.114,11.761-1.114c10.022,0,17.699,2.182,23.035,6.542
		c5.335,4.363,8.004,10.254,8.004,17.677c0,3.062-0.487,5.8-1.462,8.213c-0.974,2.414-2.252,4.571-3.828,6.472
		c-1.579,1.904-3.341,3.573-5.289,5.01c-1.949,1.44-3.945,2.763-5.984,3.967c-1.392,0.835-3.062,1.81-5.012,2.924
		c-1.949,1.113-3.876,2.251-5.776,3.409c-1.904,1.162-3.667,2.321-5.289,3.48c-1.624,1.161-2.853,2.205-3.689,3.131h37.86v20.043
		H59.262V355.241z"/>
	<path style="fill:#FFC61B;" d="M432.09,312.056c2.527,0.489,4.853,1.368,6.975,2.63c2.12,1.266,3.935,2.857,5.446,4.772
		c1.508,1.918,2.671,4.12,3.488,6.608c0.814,2.49,1.224,5.16,1.224,8.016c0,3.836-0.777,7.28-2.325,10.339
		c-1.551,3.059-3.774,5.669-6.67,7.831c-2.897,2.16-6.384,3.833-10.463,5.017c-4.079,1.181-8.647,1.774-13.705,1.774
		c-12.401,0-22.108-3.631-29.123-10.89l10.523-13.95c2.203,2.284,4.71,4.019,7.525,5.2c2.814,1.184,6.179,1.775,10.094,1.775
		c9.217,0,13.827-3.384,13.827-10.156c0-3.671-1.368-6.443-4.1-8.321c-2.734-1.875-7.035-2.814-12.909-2.814h-3.671v-14.072h4.038
		c4.567,0,8.138-0.938,10.708-2.814c2.57-1.875,3.855-4.363,3.855-7.464c0-2.692-0.939-4.73-2.814-6.118
		c-1.878-1.386-4.365-2.08-7.464-2.08c-3.346,0-6.385,0.796-9.117,2.387c-2.734,1.591-5.038,3.855-6.913,6.791l-12.359-14.194
		c1.303-1.713,3.017-3.304,5.139-4.772c2.12-1.468,4.527-2.71,7.22-3.731c2.692-1.019,5.586-1.815,8.688-2.387
		c3.099-0.569,6.281-0.857,9.544-0.857c4.323,0,8.278,0.51,11.869,1.53c3.589,1.021,6.648,2.49,9.177,4.405
		c2.527,1.918,4.485,4.203,5.874,6.852c1.386,2.652,2.08,5.609,2.08,8.872c0,2.447-0.388,4.772-1.163,6.975
		c-0.777,2.203-1.856,4.203-3.242,5.996c-1.389,1.796-3.04,3.285-4.956,4.466C436.474,310.853,434.372,311.647,432.09,312.056z"/>
</g>
<g>
</g>
<g>
</g>
<g>
</g>
<g>
</g>
<g>
</g>
<g>
</g>
<g>
</g>
<g>
</g>
<g>
</g>
<g>
</g>
<g>
</g>
<g>
</g>
<g>
</g>
<g>
</g>
<g>
</g>
</svg>
